# xmcd
#
# Track frame offsets: 
#        150
#        21367
#        42505
#
# Disc length: 798 seconds
#
# Revision: 0
# Processed by: cddbd v1.5.1PL0 Copyright (c) Steve Scherf et al.
# Submitted via: ExactAudioCopy v0.95a5
#
DISCID=21031c03
DTITLE=Queen Pen - It's True
DYEAR=1998
DGENRE=R&B
TTITLE0=It's True (Main Mix)
TTITLE1=It's True (Instrumental)
TTITLE2=All My Love (Radio Edit)
EXTD=
EXTT0=
EXTT1=
EXTT2=
PLAYORDER=
